<?xml version="1.0" encoding="UTF-8"?>
<!DOCTYPE svg PUBLIC "-//W3C//DTD SVG 1.1//EN" "http://www.w3.org/Graphics/SVG/1.1/DTD/svg11.dtd">
<!-- Creator: CorelDRAW X8 -->
<svg xmlns="http://www.w3.org/2000/svg" xml:space="preserve" width="297mm" height="210mm" version="1.1" style="shape-rendering:geometricPrecision; text-rendering:geometricPrecision; image-rendering:optimizeQuality; fill-rule:evenodd; clip-rule:evenodd"
viewBox="0 0 29700 21000"
 xmlns:xlink="http://www.w3.org/1999/xlink">
 <defs>
  <style type="text/css">
   <![CDATA[
    .fil0 {fill:#0D3192}
    .fil1 {fill:#FF6400;fill-rule:nonzero}
   ]]>
  </style>
 </defs>
 <g id="Camada_x0020_1">
  <metadata id="CorelCorpID_0Corel-Layer"/>
  <g id="_852780352">
   <path class="fil0" d="M7015 15718l-139 -112c-100,-79 -322,-310 -331,-421 47,12 48,29 120,68 57,32 58,37 124,64 54,23 76,38 130,58 50,18 92,36 149,55 78,26 515,189 574,194l-239 -200c-39,-39 -74,-67 -97,-122 -35,-83 0,-42 -72,-148 88,20 82,26 131,88 36,46 59,81 100,120 84,80 168,111 260,179 96,71 169,108 277,161 68,34 241,102 330,110 -17,-14 3,-1 -28,-20 -16,-10 -22,-13 -40,-22 -136,-77 -386,-304 -418,-444 54,14 66,43 138,96 116,86 328,203 462,260 116,50 222,100 352,133 57,15 123,33 188,48 166,38 165,32 192,-4 -61,-14 -153,-69 -214,-99 -44,-22 -66,-37 -100,-57 -48,-27 -62,-21 -93,-64 306,0 235,20 454,32 168,9 334,-1 482,-20 220,-29 538,-139 662,-325 -190,44 -247,110 -533,110 42,-36 67,-31 135,-53 58,-19 100,-28 157,-47 80,-26 223,-87 304,-88 0,356 82,23 517,-95 68,-18 177,-50 235,-78 -14,54 -42,70 -87,101l-223 153c-204,139 -442,228 -675,312 -285,103 -754,229 -1081,268 -594,69 -1017,104 -1637,2 -156,-26 -851,-149 -933,-244 -52,-61 -92,-187 -113,-278 127,85 333,329 580,329zm-3871 -3213c96,25 301,225 388,301 49,44 79,56 124,111 43,51 54,69 103,117 222,218 236,436 398,761 102,205 420,722 632,779 -67,-127 -262,-382 -297,-533 52,35 44,42 83,89 29,35 60,62 93,95 201,201 366,289 400,321 198,187 274,194 512,382 131,104 274,215 349,371 28,59 18,88 52,137 0,-213 -43,-226 -116,-355 -11,-18 -2,-4 -13,-26 -17,-38 14,13 -10,-23l-179 -188c-143,-140 -86,-172 -151,-225 -41,-32 -100,-24 -139,-65 -71,-76 9,-196 -97,-279 -132,-103 -174,20 -348,-216 -150,-205 -240,-178 -327,-253 280,23 320,220 551,311 268,106 225,247 468,410 16,-58 37,-61 110,-63 0,151 -24,100 30,220 30,66 55,133 142,140 0,0 17,-280 120,-168 23,26 11,41 8,76 -18,250 172,624 330,794 41,44 90,67 106,129 -127,-10 -684,-281 -841,-366l-494 -305c-46,-31 -73,-53 -119,-84 -207,-141 -678,-562 -853,-761l-611 -816c-104,-166 -395,-711 -404,-818zm0 0l0 0zm7366 2413c-78,7 -19,-5 -76,33 -106,71 -116,44 -170,82 -29,20 -112,136 -276,79 -100,-34 -55,-81 -167,-84l-18 62c-416,1 -225,-260 -453,-313 21,44 16,31 16,94 -145,0 -137,-67 -235,-94 -9,37 -15,47 -16,94l-47 0c-1,-68 -10,-48 -15,-109 -134,11 -94,89 -141,188 -60,-5 -83,-41 -128,-76 -43,-35 -79,-58 -116,-104 -100,-123 -199,-31 -227,86 -88,-21 -159,-65 -203,-141 -139,-243 -101,-245 -440,-250 -172,-3 -120,-85 -219,-143 -123,-71 -113,24 -228,55 -114,30 -239,2 -305,-38 -115,-68 -16,-113 -118,-227 -21,-24 -14,-12 -35,-43 -51,-72 -54,-107 -176,-107 0,-68 2,-114 156,-109 449,16 1036,501 1474,501l0 -15c-151,0 -362,-103 -485,-174 -239,-137 -376,-313 -709,-419l-336 -103c-178,-59 -585,-114 -789,-120 -88,-2 -137,-17 -205,-17 -101,2 -96,40 -156,80l-122 -113c-88,26 -22,50 -128,52 -124,2 -257,-121 -377,-174 -323,-142 -431,-321 -554,-334 -51,-6 -81,16 -154,-7 -102,-33 -113,-109 -206,-156 -99,-50 -171,-33 -242,-118 -36,-44 -39,-62 -87,-102 -33,-27 -72,-56 -107,-80l-506 -215c-141,-56 -136,-35 -178,-182l-166 -571 -249 -284c-33,-37 -54,-64 -85,-103 -45,-56 -127,-165 -177,-199 0,117 29,274 44,379 18,135 42,242 69,369 194,907 616,1759 1190,2463 193,237 517,590 750,770 81,63 155,130 242,197 560,438 1337,833 2015,1010 1679,440 3428,196 4865,-762 315,-210 804,-603 1048,-880l303 -355c434,-553 687,-1010 933,-1668 309,-826 461,-1968 250,-3029 -48,-245 -104,-471 -171,-690 -118,-382 -339,-859 -536,-1189 -54,-90 -296,-475 -360,-518 14,51 40,75 69,119 157,238 338,606 446,871 608,1483 573,2979 2,4418 -35,88 -72,170 -115,261 -205,443 -583,999 -915,1357l-180 196c-95,94 -92,98 -216,161 -177,88 -365,148 -555,213 -81,27 -69,15 -106,82 -82,146 -201,57 -262,59 -61,2 -78,41 -123,59 -100,39 -38,-43 -333,25 1,42 4,24 9,42 1,3 3,8 3,12 9,39 22,22 -4,34 -37,16 -15,2 -31,1 -42,-4 -124,-32 -165,-42 12,-21 8,-17 15,-47z"/>
   <path class="fil0" d="M4547 12193c-66,-42 -112,-71 -144,-92 -2,-1 -4,-3 -6,-4 0,0 0,0 1,0l5 4 144 92zm-149 -96c2,2 3,3 5,4l-5 -4zm5 4l-5 -4c-30,-109 -110,-106 -110,-282 80,-21 38,-58 225,-120 88,-29 173,-39 255,-74 137,-60 272,-228 413,-260 -28,120 -122,151 -125,282 83,-20 203,-116 273,-166 311,-225 395,-210 676,-421l376 -282c51,-38 77,-55 121,-99 99,-101 255,-244 404,-256 245,-19 144,188 140,236 237,-55 388,-360 439,-580 132,97 1,356 -57,460 -265,477 -761,480 -1249,632 -160,49 -296,131 -439,204 -541,274 -452,526 -654,600 -128,47 -122,-29 -231,82 -52,53 -87,124 -128,185 -76,-1 -116,-28 -180,-45l-144 -92zm0 0c-2,-1 -3,-2 -5,-4l5 4z"/>
   <g>
    <path class="fil0" d="M4403 12101c-2,-1 -4,-3 -6,-4 -89,-21 -54,-44 -125,-63 221,330 1132,944 1580,1054 16,4 52,10 77,18 47,15 54,17 53,20l126 -197c-36,8 -115,-3 -305,-58 -372,-107 -762,-322 -1080,-536 -54,-36 -162,-83 -184,-144 0,0 0,0 0,0 2,1 5,2 8,2l-144 -92zm0 0c136,90 136,90 136,90l-136 -90zm0 0l136 90c0,0 0,0 -136,-90z"/>
   </g>
   <path class="fil0" d="M6278 12850l110 -157c-44,-12 -89,-56 -136,-84 -139,-82 -288,-160 -417,-257 -125,-94 -273,-169 -408,-250 -56,-33 -89,-69 -152,-83 56,83 161,145 239,215 149,133 356,276 509,401 68,55 215,155 255,215z"/>
   <path class="fil0" d="M7682 12740l12 1 -5 171c-5,2 -22,7 -25,10l18 -177 0 -5zm0 5l-18 177c-52,35 23,87 -60,147 0,-120 -21,-234 -47,-345 -17,-4 -52,-10 -64,-14 -105,-33 -9,-49 -140,-49 8,-87 46,-158 -18,-232 -62,-69 -264,-135 -256,70 6,158 -47,26 -9,131 21,62 143,150 80,251 -25,-106 -35,-90 -110,-141 -67,-45 -78,-49 -78,-157 -120,-28 -175,-73 -283,-16 11,46 28,73 47,110 -82,-22 -203,-148 -203,47 66,35 124,49 141,110l-94 0c3,133 47,36 47,235 -125,-3 -197,-47 -361,-47 0,138 18,157 -125,157 6,68 39,124 110,141 -10,111 -102,71 -182,40 -123,-49 -145,-11 -245,-15 -51,-1 -137,-80 -179,-110 -68,-47 -155,-38 -210,-72 370,0 249,123 486,111 79,-4 94,-16 141,-48 -36,-50 -12,-11 -50,-45 -51,-47 -29,-52 -27,-55 0,0 0,0 0,0l127 -197c61,-13 3,-79 170,-79l110 -157c0,-90 -26,-214 43,-270l88 -69c108,-71 262,-17 365,31 175,82 86,24 84,-84 52,-28 29,-1 62,-47 33,9 45,27 63,47 45,-170 259,29 311,81 35,35 88,39 117,71 31,36 -13,11 42,52 38,-57 76,-152 126,-188 -25,104 -32,292 -32,423l29 0 2 0 0 5z"/>
   <path class="fil0" d="M8361 13045l-115 434c90,-252 257,-142 352,-178 55,-20 70,-114 -29,-122l0 -94c97,-47 49,-3 110,-94 23,12 5,0 29,18 2,2 6,5 8,7 36,28 205,96 136,241 110,0 106,3 172,47 0,43 -7,96 7,135 48,131 184,120 118,257 -103,0 -156,9 -235,16l-17 -63 -124 0c-22,82 -14,33 -92,49 -49,11 -66,22 -59,86l50 185c18,54 6,-7 23,56 -46,-30 -21,-32 -79,-47 69,130 62,86 180,150 47,25 13,23 71,38 0,-200 -141,-39 -141,-329 66,-57 29,-43 173,-47 70,105 39,110 203,110 33,122 167,28 173,297 -27,14 -28,15 -47,32 -84,-23 -58,-72 -141,-94 153,289 137,94 344,204 -15,-60 -30,-46 -62,-95 86,-23 100,-127 141,-203 32,17 -4,-1 28,19l19 12c87,43 155,-25 235,125 -19,35 -26,48 -47,79 -113,0 -76,-4 -141,-47 2,104 24,76 94,110 0,186 -37,78 58,160 68,59 8,109 61,207 146,268 1018,8 1025,-305 -89,60 -111,136 -252,187 -117,41 -251,33 -406,33 -11,-46 -21,-96 -32,-141 -61,-2 -36,4 -78,-16 0,-88 -3,-161 10,-242 22,-140 -34,-112 -57,-197 55,-15 41,-27 98,-44 66,-19 61,-8 122,-3 14,63 31,75 31,157 124,3 175,105 219,188 64,-2 104,-19 157,-31 -3,-3 -9,-8 -11,-4l-46 -4c-35,0 -7,27 -55,-6 -66,-45 29,-142 -55,-227l-166 -148c-117,-105 -197,-101 -310,-176 40,-58 63,-53 63,-156 -85,-57 -154,-110 -298,-110l0 -32c42,-9 46,-14 79,-31 -25,-37 -19,-16 -32,-63 173,-115 145,-234 26,-385 -111,-141 -330,-132 -496,-132 17,-63 19,-24 37,-75 26,-73 -1,-65 -5,-92 -5,-26 -7,1 -1,-26 6,-27 89,-144 -113,-242 -57,-27 -149,-16 -200,-51 28,-106 88,-47 25,-212 -41,-109 -281,-211 -323,-54 132,-70 187,-17 251,78 -13,50 -10,17 -29,50l-96 138 -40 -26c-73,-35 -20,49 13,83l42 69c235,0 107,-11 219,47 104,53 149,64 17,157 -54,39 -28,45 -110,46 88,167 127,226 326,254 71,9 170,37 236,62 85,31 127,48 127,170 -103,70 -128,39 -214,61 -39,9 -3,16 -68,33 -24,-34 -2,-19 -47,-31 0,-68 -7,-77 16,-125 -296,-25 -197,101 -329,31 2,-97 29,-60 31,-157l-63 -47c-96,32 61,7 -51,30 -112,24 -147,-65 -264,-76 -145,-14 -238,92 -249,219 -100,0 -131,-33 -130,-87z"/>
   <path class="fil0" d="M10056 4950c-85,-59 -542,-175 -633,-198 -238,-59 -446,-88 -712,-118 -514,-59 -1088,-29 -1555,49 -486,81 -881,216 -1285,377 -103,41 -178,86 -280,127l-278 146c-508,303 -637,386 -1084,781 -105,92 -233,198 -320,307l-189 218c-233,250 -592,792 -754,1111 -28,54 -48,97 -73,147 -95,189 -164,375 -246,584 -80,203 -136,424 -190,641 -42,169 -113,541 -113,718 306,147 230,158 376,235l35 -357c60,-553 221,-1079 429,-1577 91,-220 222,-463 341,-663 113,-190 367,-555 508,-714 19,-20 28,-26 46,-48 120,-142 305,-359 444,-465l269 -233c24,-20 33,-32 58,-52 603,-492 1448,-905 2331,-1101 827,-184 1697,-182 2544,8l331 77z"/>
   <path class="fil0" d="M8379 9119c0,-111 -24,-116 -6,-224 34,-197 129,-373 303,-466 -15,-57 -16,-32 -47,-78 50,-4 127,-21 173,-31 -20,-74 -85,-99 -137,-145 -52,-47 -100,-84 -156,-126 -116,-85 -205,-212 -303,-278 7,76 31,72 47,141 -168,-45 -104,-267 -302,-544 -121,-170 -271,-286 -407,-439 -152,-173 -252,-327 -267,-579 -13,-224 71,-114 13,-342 -27,-103 21,-2 -47,-158 -31,-72 -12,-104 -71,-148 -24,50 -16,72 -16,141 -46,13 -25,7 -63,32 18,44 7,4 34,30 28,27 20,-16 17,25 -2,39 -43,51 -82,54 16,-67 32,-200 0,-266 -169,113 -2,684 -176,524 -82,-76 -8,-114 -137,-117 22,98 113,280 199,365 431,424 140,895 760,1403 55,45 62,149 138,302 34,70 63,123 104,193 78,129 277,411 323,539l106 192z"/>
   <path class="fil0" d="M5195 13162l0 0c0,0 0,0 0,0 0,0 0,0 0,0 0,0 0,0 0,0l0 0c0,0 0,0 0,0l0 0c0,0 0,0 0,0zm0 0l0 0c0,0 0,0 0,0z"/>
   <path class="fil0" d="M5195 13162l0 0c-54,-28 -85,-41 -135,-82 -206,-169 -213,-150 -405,-300l-390 -316c-46,-36 -90,-67 -130,-104l-368 -338c-47,-46 -78,-61 -126,-109l-478 -462c-158,-158 -304,-305 -462,-463 -82,-82 -153,-153 -235,-235 -181,-180 -497,-578 -666,-745 -99,-97 -363,-390 -428,-513 138,0 359,141 458,201 804,486 1222,761 1988,1304 127,91 250,183 385,273 83,54 327,243 398,260 -63,-95 -554,-465 -674,-549l-969 -692c-315,-234 -686,-444 -1022,-639 -103,-60 -454,-222 -590,-245 -213,-36 143,408 196,482 165,223 553,739 720,926l192 231c60,77 119,145 183,224l471 564c40,42 71,65 107,112 80,103 500,527 627,611 117,77 198,63 306,118 147,75 47,123 281,126 387,5 643,442 799,455 -21,-31 -35,-36 -34,-78 0,-7 1,-13 1,-17z"/>
   <path class="fil0" d="M10103 4966c21,15 -33,15 47,15l0 -15 -47 0z"/>
   <path class="fil0" d="M10103 4966c-17,-16 27,-16 -47,-16 17,16 -28,16 47,16z"/>
   <polygon class="fil0" points="8379,9119 8379,9135 8397,9122 "/>
   <polygon class="fil0" points="4789,14574 4789,14589 4808,14576 "/>
   <polygon class="fil0" points="10510,14918 10526,14918 10513,14900 "/>
   <polygon class="fil0" points="12940,7050 12940,7035 12921,7048 "/>
   <polygon class="fil0" points="10855,14401 10871,14401 10858,14383 "/>
   <polygon class="fil0" points="7015,15718 7015,15734 7033,15720 "/>
   <polygon class="fil0" points="12955,7082 12940,7050 "/>
   <polygon class="fil0" points="12971,7097 12955,7082 "/>
   <polygon class="fil0" points="4617,11549 4601,11533 "/>
   <polygon class="fil0" points="4256,12019 4241,12003 "/>
   <polygon class="fil0" points="4272,12034 4256,12019 "/>
   <polygon class="fil0" points="7642,15624 7673,15642 "/>
   <g>
    <path class="fil0" d="M7689 12727c0,4 0,8 0,13 -4,0 -5,174 -2,173l2 -173 0 -13 0 0zm63 -802c4,-98 41,-159 47,-236 15,-180 -233,-389 -357,-505 -60,-56 -81,-112 -160,-59 -9,-35 -13,-36 -16,-78l-94 0c10,-126 150,-180 223,-262 118,-133 286,-565 179,-736 -22,-35 -102,-88 -139,-96 -117,-26 -132,8 -185,44 23,-86 112,-114 234,-93 50,9 73,40 112,61 321,171 305,306 422,392 -25,-106 -27,-177 16,-266 29,21 45,50 72,85 31,41 41,42 53,87l47 0c-1,-76 -29,-174 -31,-250 58,15 20,15 78,31 -76,-160 44,-734 188,-831 15,63 35,139 79,188 0,-63 1,-126 1,-189 -1,-31 1,-59 -7,-88 -27,-107 -86,-59 -89,-192 -9,-400 273,-417 316,-523 17,-43 -104,-58 230,-58 1,0 2,0 3,0 -29,-74 26,35 -3,0 -4,-5 -10,-13 -19,-26 -5,-8 -9,-10 -11,-11 -8,-1 -4,23 0,0 0,-2 0,-5 1,-9 9,-86 349,-54 441,45 21,23 16,31 40,54 49,49 282,47 288,292 -81,9 -29,-18 -47,31 56,42 71,141 68,213 -5,98 -33,148 -55,229l-60 -50c53,230 39,145 195,260 55,40 179,174 197,242 -107,-51 -316,-36 -376,47 71,-2 125,-28 218,-15 155,22 298,220 409,250 -19,-35 -27,-47 -47,-79 43,4 163,38 212,55 68,22 114,46 174,76 87,43 270,186 319,199 -21,-32 -42,-63 -63,-94 396,0 420,150 793,241 481,117 746,583 1038,765 54,33 100,66 155,96 276,153 693,171 726,293 -100,47 -278,-60 -408,-63l93 63c33,19 64,41 95,62 65,44 136,68 157,157 -104,0 -142,-30 -211,-72 -55,-33 -124,-87 -181,-100 17,72 91,171 137,223 24,26 173,160 109,191 -46,21 -154,-111 -187,-144 -63,-63 -105,-119 -184,-161 0,147 108,361 62,455 -57,-39 -48,-73 -72,-147 -28,-87 -101,-314 -174,-362 -62,-40 -29,-19 -51,-8 -79,47 8,219 -110,250 -24,-49 -29,-145 -41,-210 -14,-74 25,-141 -24,-194 -319,-347 -506,-355 -964,-510 -242,-83 -239,-127 -332,-170 -43,-19 -142,9 -221,2 -59,-5 -151,-28 -201,-22 -133,15 -223,83 -411,86 -109,2 -138,-3 -226,-25 -295,-76 -113,-89 -459,202 -192,161 -433,319 -680,386 -126,35 -75,21 -118,148 -66,194 -153,369 -228,556l-290 760c-31,94 -71,178 -73,237l-115 434c-7,22 -15,48 -21,76 -82,-22 -44,-57 -126,-79 -11,49 -20,46 -31,95 -62,-17 -63,-47 -126,-63l-62 204c-146,-34 -228,-127 -236,-298 -4,-98 3,-413 30,-496 1,-2 1,-4 2,-6l0 -172 0 172c-1,0 -1,1 -2,1l2 -173 0 -13c0,0 50,-535 63,-802z"/>
   </g>
  </g>
  <path class="fil1" d="M17012 8411l36 28 56 -5 61 70 0 27 37 34 21 71 -9 43 9 0 -21 236 -37 41 -61 30 -71 90 -62 15 -56 55 -76 -37 -21 -56 33 -39 -21 -49 36 -71c-6,-42 -13,-65 -21,-71l-77 10 -55 -21 -92 21 10 34 -65 54 -29 0 -291 182 -49 49 -38 6 -12 29 -76 21 6 15 -56 21 -126 96 -21 21 30 19c9,6 23,23 41,52l34 -21 21 27 56 -21 42 21 78 -6 241 6 23 28 65 0 49 36 88 -30 34 0 31 21 40 0 28 23 43 0 21 21 24 4c7,1 22,11 44,30l27 0c17,-10 36,-18 58,-23l41 38 21 39 120 78 117 104 -27 49 48 44 -33 103 -9 99 -32 51c-9,17 -22,47 -36,88l-64 34 -13 36 -259 175 -48 -8 -6 27 -281 93 -42 33 -84 0 -21 21 -43 0 -18 23 -44 -16 -120 42 -6 -5 -55 5 -98 23 -167 -17 -76 23 -98 -23 -19 -1 -20 -2 -16 -1c-4,-1 -14,-6 -29,-17 -16,-9 -30,-19 -42,-27l-55 -78 6 -103 27 -6 28 -29 42 -21c17,-21 41,-42 71,-62l160 0 0 50 -6 18 21 21 -49 47c-6,6 -15,23 -27,52l12 27 77 35 22 -35 55 -12 77 18 91 9 56 -27 50 0 67 -15 27 -15 56 0 38 -7 129 -51 42 -10 32 -19c10,-6 37,-13 84,-21l23 -21 21 6 126 -71 33 -68 65 -19 -3 -39 25 -34 -12 -12 33 -86 -6 -34 18 -50 -36 -70 15 -56 -37 -82 -37 -15c-13,-31 -30,-55 -49,-71l-77 15 -23 -55c-3,-7 -16,-19 -38,-38 -23,-4 -48,-13 -76,-27l-50 50 -21 -23 -78 -18 -42 -43 -23 22 -38 -15 -29 27 -65 -27 -27 42 -67 -33 -9 33 -56 0 -12 -21 -64 -12 -56 27 -66 -7c-7,-1 -25,-11 -54,-29l-34 15 -28 -15 -6 27 -85 9 -7 -15 -34 6 -55 -50 -15 -37c-4,-12 -16,-27 -35,-45 24,-19 45,-38 62,-55l15 0 28 -50 27 0 35 -39 77 -50 76 -70 43 -29 56 -21 49 -49 42 -21 47 -41 71 -42 64 -71 74 -40c12,-12 28,-22 49,-28l10 -21 89 -65 27 0 38 -46c31,-16 57,-33 77,-49l6 -22 33 -15 6 -12c46,-34 84,-65 113,-93l13 0 0 -12 22 0 6 -21 64 -21 118 -72zm1444 139l-9 0 -55 119 -7 -6c0,11 -5,21 -14,29l0 5c-22,36 -50,61 -83,77l-12 -6 0 12c-39,-5 -69,-13 -91,-25 -21,-11 -37,-30 -48,-57 -10,-26 -21,-54 -31,-83 15,-21 28,-33 38,-38l12 -40 49 -27 27 -59 50 -27 0 10 27 11c7,-4 11,-7 14,-9 2,-3 6,-6 11,-10 4,-3 16,-7 35,-11 19,-5 33,-10 44,-16l16 -9 12 0 22 34 0 48 6 44 -13 34zm-218 878l-6 0 -12 78 12 10 -21 55 -6 -10 0 22c0,44 -18,86 -55,126l12 0 0 27 -6 0 6 176 -12 21 6 28 -23 110 7 0c0,20 -4,49 -14,86l-14 40 -18 200c-4,20 -6,31 -6,34 0,18 8,27 24,27 19,0 40,-7 63,-22l98 -66c27,-34 46,-50 58,-50l9 0c17,-8 33,-22 48,-41 15,-18 27,-29 35,-32 15,-27 28,-41 40,-41 1,0 5,1 13,3 6,2 25,5 55,11l12 42c0,23 -8,49 -24,78 -16,30 -29,54 -38,74 -10,19 -31,35 -64,47l0 11 -21 -7 0 21 -14 0c-3,28 -17,43 -42,47l0 9 -40 0 0 6 -15 0 -41 27 -12 0 -21 29 -61 9c-6,12 -16,18 -29,18l-76 55 0 13 -38 -7 11 15 -50 13 0 7 -21 0 0 21 -23 15 -5 0 0 6c-14,37 -32,56 -56,56l-21 -7c-12,-36 -32,-74 -62,-111 9,-31 13,-55 13,-70l-13 -62 0 -33c0,-31 3,-63 10,-96l8 -39 0 -8 -2 0c-2,0 -3,0 -3,-2 0,-2 4,-19 13,-48 10,-31 15,-70 15,-118 0,-11 -4,-19 -14,-21l20 -40 0 -182 24 -52c8,-16 16,-48 24,-95 13,-8 21,-15 23,-22l-13 -18 13 -30c-16,-32 -35,-47 -56,-47l-70 0c-9,8 -13,17 -13,27l-10 0c-5,27 -18,44 -39,50 -5,26 -20,41 -43,46l-28 44 -6 0c-7,22 -19,33 -37,33 -20,0 -37,-15 -49,-44 -13,-29 -19,-45 -19,-48 0,-4 2,-8 6,-13 10,-44 41,-81 93,-110l0 -12c22,-22 45,-38 68,-49l-14 0c43,-9 69,-31 76,-67 7,-36 34,-54 79,-54l18 7 37 -18 -22 0 34 -23 10 6 27 -33 7 6c12,-29 40,-44 83,-44 10,0 15,-4 15,-11l0 -16 11 0 -5 -5 49 -35c16,-28 42,-42 77,-42 22,0 41,6 57,18 17,12 25,24 25,36 0,13 -7,31 -21,55zm1802 -1062l43 6 6 21 21 6 -6 61 0 23 -21 21 -4 48c-3,29 -14,53 -31,72l20 12 -34 15 0 35 -34 32 0 56 -10 -6 -18 37 -8 62c-1,8 -8,22 -22,42l9 35 -14 37c-5,16 -12,28 -19,35l-31 31 0 56 14 6 -14 87 8 18 -37 64 0 56 -27 27 0 71 -35 49 0 28 14 13 -7 42 16 22c-15,31 -36,52 -65,62l-6 42 21 13 -43 27 6 32 -6 39c53,-4 84,-8 93,-12l27 12 -126 154 -42 168 -29 19 6 49 -12 15 6 23 -6 12 0 64 6 41 -12 0 -9 35 -22 18 -12 0 0 79 28 15 -34 49 12 0 -6 27 22 29 0 27 21 21 -9 50 15 28 0 109 -21 6 21 50 0 44 27 103 91 194 -7 0 49 43c28,47 52,84 71,111 32,18 49,32 55,44l13 0 0 15 30 18 18 0 28 21c42,-10 70,-33 86,-68 21,-3 46,-17 77,-42l28 48 -22 8 0 27 -27 15 6 35 0 27 21 -6 0 49 -42 21 8 12 -21 6 -10 17 10 11 -22 0 6 16c-25,5 -55,20 -89,43 -9,-5 -33,-28 -70,-70l-62 21 -31 -38 -12 -27 -9 -8c-4,-3 -8,-8 -11,-16 -4,-7 -8,-15 -13,-26l0 -27 -23 -34 0 -15 -27 -18 -153 -191 -93 -167 9 -21 -36 -55 27 -15 -12 -28 -9 -77 -12 -27 -16 -61 -28 -41c-4,-6 -7,-21 -10,-47l-11 -82 0 -62 -7 0 17 -64 -10 -33 -40 -7 12 -28 15 12 -21 -89 -27 34 27 -89 -21 0 0 6 -22 -6 -68 68 -6 -6 -42 21 0 28 -35 27 0 15 -21 0 -25 20c-8,6 -26,11 -52,15l7 33 -35 22c-10,40 -22,68 -37,83l0 21 -27 23 0 32 -27 -6 -41 83 -58 22 -12 27 -29 6 0 11 -42 18 -6 0c-10,-34 -21,-57 -34,-67l0 11c-22,-29 -39,-48 -50,-55l-9 -77 9 -34 0 -21c-7,-17 -14,-29 -21,-35l12 -21 0 -21 9 -43 -27 -27 27 -20c-14,-29 -21,-59 -21,-91l0 -21 6 -35 -12 -36 27 -46 -15 -93 15 0 13 -49 0 -22 16 0 0 -138 21 -15 6 -67 0 -29 49 0 12 -77 50 12 34 -88 0 -28 9 13c13,-22 29,-61 48,-118l20 -14 0 -23 9 23 6 -44 27 -6 16 -34 0 -15 21 -6c6,-14 34,-42 83,-83l6 12 22 -27 28 9 11 -9 0 -14 17 7 21 -62 67 20 -6 -7 44 0 -10 -6 22 -7 73 10 89 52 -30 0 59 16 0 12 39 43c12,43 21,66 28,68l21 -7 15 -42 29 -13 0 -70 6 -22 21 -6 -6 -50 12 -21 35 -18 -13 -29 6 -9 -28 -12 0 -279 22 -23c4,-20 8,-32 13,-39l-7 -10 0 -82 -34 21 -27 -6c-4,4 -16,8 -38,13l-6 27 -43 21 -18 0 -37 -27 -19 -55 -15 -10 15 -18 -15 -43 15 -21 29 -6 6 -23 27 -5 28 -50 15 0 6 -15 111 -82 7 -13 49 0 0 -16 15 16 21 0 6 -22c19,-3 36,-10 49,-21l139 -12zm-754 1143l-12 39 -98 50 -43 92 -21 13 -6 0 -14 21 -9 -6 -12 33 12 17c-7,50 -17,79 -26,88l0 27c-18,13 -31,37 -41,72l-15 0 0 33 -21 65 15 34c-20,56 -37,94 -50,113l12 20 0 55 17 15 -23 33 6 44 29 32 0 -11 21 11 43 -18 12 7 77 -92 21 -6 0 -6 44 -43 49 -21 33 -41 23 -9 70 -62 95 -70 19 -59c2,-6 15,-21 39,-46 8,-39 19,-69 35,-88l-44 -50 -6 -111 -6 -36 0 -13c-11,-14 -18,-29 -21,-43l-23 0 -5 33 -37 -6 0 -33 -13 6 -6 -21 -42 15 -44 -15 -6 -34 -28 -28zm3137 -1098l36 28 56 -5 61 70 0 27 38 34 21 71 -9 43 9 0 -21 236 -38 41 -61 30 -71 90 -61 15 -56 55 -76 -37 -21 -56 33 -39 -22 -49 37 -71c-6,-42 -14,-65 -21,-71l-77 10 -56 -21 -91 21 9 34 -65 54 -28 0 -291 182 -50 49 -37 6 -13 29 -76 21 6 15 -56 21 -126 96 -21 21 30 19c9,6 23,23 41,52l34 -21 21 27 56 -21 42 21 78 -6 242 6 22 28 65 0 49 36 89 -30 33 0 31 21 41 0 27 23 44 0 21 21 24 4c7,1 21,11 43,30l27 0c17,-10 37,-18 59,-23l40 38 21 39 120 78 117 104 -27 49 48 44 -33 103 -9 99 -31 51c-10,17 -22,47 -36,88l-65 34 -13 36 -258 175 -48 -8 -7 27 -280 93 -42 33 -84 0 -21 21 -44 0 -18 23 -43 -16 -120 42 -7 -5 -55 5 -98 23 -166 -17 -77 23 -97 -23 -20 -1 -19 -2 -17 -1c-4,-1 -14,-6 -29,-17 -15,-9 -29,-19 -41,-27l-56 -78 6 -103 27 -6 29 -29 42 -21c17,-21 40,-42 70,-62l161 0 0 50 -6 18 21 21 -50 47c-6,6 -15,23 -27,52l12 27 77 35 22 -35 56 -12 77 18 91 9 56 -27 49 0 68 -15 27 -15 55 0 38 -7 129 -51 42 -10 33 -19c9,-6 37,-13 84,-21l22 -21 21 6 126 -71 34 -68 64 -19 -3 -39 26 -34 -12 -12 33 -86 -6 -34 18 -50 -36 -70 15 -56 -38 -82 -36 -15c-14,-31 -30,-55 -49,-71l-77 15 -24 -55c-3,-7 -16,-19 -38,-38 -23,-4 -48,-13 -76,-27l-50 50 -21 -23 -78 -18 -42 -43 -22 22 -39 -15 -29 27 -64 -27 -27 42 -68 -33 -9 33 -56 0 -11 -21 -65 -12 -55 27 -66 -7c-8,-1 -26,-11 -55,-29l-34 15 -27 -15 -6 27 -86 9 -7 -15 -33 6 -56 -50 -15 -37c-4,-12 -15,-27 -34,-45 24,-19 44,-38 61,-55l15 0 29 -50 27 0 34 -39 77 -50 76 -70 44 -29 56 -21 49 -49 42 -21 46 -41 71 -42 65 -71 73 -40c12,-12 29,-22 50,-28l9 -21 90 -65 27 0 37 -46c31,-16 57,-33 77,-49l6 -22 33 -15 6 -12c46,-34 84,-65 114,-93l12 0 0 -12 23 0 5 -21 65 -21 117 -72zm1309 791l47 55c-24,44 -43,84 -56,120l-55 34 -13 34 13 9 0 27 6 12 -12 16 0 34 -21 49 -21 15c-16,43 -28,80 -35,111l-33 27 -10 50 10 6 -38 44 0 32 -11 17 18 82 -18 71 11 82 15 62 0 56 13 70 -13 29 0 82c30,-12 50,-26 62,-40l29 6 0 -21 70 -68 33 -21 0 -16 56 -48 15 -50c24,-12 42,-26 55,-41l6 13 0 -27 32 -28 0 15 12 -21 21 0 0 -16 6 -12 28 0 6 -21 -6 -35 104 -85c11,-8 18,-17 21,-25l16 -37c19,-11 38,-18 56,-21l6 -22 15 -12 19 0 0 -27 10 21 0 -27c9,-17 17,-28 27,-32l5 -18 71 -77 29 0 27 -28 28 -59c48,-52 76,-87 83,-103l43 -7 39 -71 -12 37 56 -43 33 22 43 -28 56 0 27 22 10 55 -25 24c-8,6 -19,26 -33,60l9 27 -15 49 0 21 -22 22 0 40 -28 9 0 78 -6 33 6 34 -28 27 16 38 -16 27 16 67 -16 38 0 264 16 56 27 21 56 -7 27 28 -6 34 -36 15 -14 35 -27 6 -21 36 -22 0 -12 34 -65 21 -21 41 -84 15 -33 34 -71 16 -34 -23 -27 -89 27 -37 -15 -27 21 -27 28 -7 34 -210 0 -26 -18 -38 28 -12 -10 -27 10 -37 -28 -13 -16 -21 27 -22 0 -33 17 -38c-27,-21 -45,-32 -55,-33l-9 -72 -29 0 -21 -12 -29 50 -153 166 -28 21 -6 21 -118 139 -14 28 -126 147 -153 167 -47 26c-6,2 -16,15 -30,39 -43,15 -66,24 -71,26l0 16 -19 -10 0 44 -42 27 -55 -6 -56 40 -9 -21 -35 -19 -6 -36c-15,-11 -27,-28 -36,-50l-34 -11 -12 -35 -21 -241 21 -88 12 0 0 -64 34 -27 -6 -29 21 -49 27 0 6 -19 -6 -42 23 -7 6 -48 6 -6 -18 -23 18 -42 0 -49 9 -105 12 0 0 -50 28 -33 -22 -28 22 -37 -7 -18 28 -55 -43 -50 -27 7 -6 27 -41 7 -15 36 -49 0 -21 -27 -167 55 -43 -71 55 -55c29,-11 48,-30 56,-55l49 -9 0 -13 44 0 55 -7 36 -64 56 16 61 -16c3,-8 11,-16 21,-24l50 0 -6 -9 12 -6 34 0 10 -16c22,-9 44,-25 67,-49l27 0 23 -28 21 -6 21 6 28 -15 15 15 12 -27 15 0zm2010 42c24,11 38,27 41,49 -28,29 -41,71 -41,126l0 23c-10,10 -15,20 -15,30 0,11 2,19 6,24l9 0 -9 44 -27 6 -12 49 -9 0c3,17 10,28 21,33 25,-2 65,-34 120,-94l6 6 153 -115 29 -6 70 -39 56 -16c35,-30 90,-46 165,-48 34,20 57,30 67,30 14,0 20,4 20,12 0,7 -5,27 -14,61l-64 38 -36 45 -105 49 -39 -17 -29 0 0 6c-72,27 -137,48 -196,61 -29,55 -80,127 -155,216 -75,89 -114,157 -116,203l-9 217 -58 98 6 137c-4,15 -11,32 -20,50 -10,17 -17,33 -21,46 -4,13 -18,38 -42,75l-26 7c-8,1 -35,20 -82,57l-76 0 -35 13 -49 -49c0,-29 10,-65 31,-108 21,-43 33,-74 36,-94 14,-99 40,-158 78,-176l15 -43 -6 -27 12 -23 -40 -68 0 -21 -9 -132c14,-9 23,-15 28,-15 8,0 17,6 27,15l59 -76 -9 -56 15 -64 -36 -29 0 -153 -56 44 -34 0 -50 32 -48 -11 -49 6c-27,0 -41,-9 -41,-27 0,-31 15,-66 45,-107 30,-41 76,-78 137,-113l0 -6 40 -5c16,-30 35,-44 56,-44 12,-5 25,-15 41,-29 14,-15 48,-34 100,-60l39 21 31 -14 47 -13 57 -31zm266 2801l67 -114 12 10 9 -44 56 -92 27 -13 6 -26 37 -38c15,-36 24,-54 27,-55l0 -13c5,-3 19,-29 41,-76 12,-34 21,-53 28,-55 11,-59 27,-107 48,-147l23 -83 0 -23 21 -33 43 -213 0 -27c10,-9 15,-25 18,-47l27 -190 38 -49 -9 -39 9 -29 21 -126 12 -27 -6 -44 6 -12 28 -120 6 -49 15 -42 -5 -56 5 -12 35 6 27 -99 0 -39 15 -93 23 -6 0 -50 11 -21 0 -70 44 -117 6 -27 -12 -29 33 -65 0 -26 9 -32c-32,-22 -53,-33 -65,-33l-29 0 -20 12 -42 -18 -22 0 -21 -50 -62 -11 -21 -23 -22 0 -28 -48 0 -37 -55 -74 31 -44 39 0c2,-3 12,-9 29,-18l6 -21 15 0c8,-14 26,-28 52,-43l30 0c31,18 56,58 78,120l71 0 12 27 15 -15 21 21 28 6 34 0 34 -103 3 -41 6 6 -6 -27 18 -21 -6 -35 15 -15c10,-27 20,-47 29,-61l-15 -9 27 -62 9 6 6 -20 6 0 0 -29 22 -18 12 -65 -12 -29 33 -76 23 -12 0 -21 60 -72c11,-8 30,-29 58,-62l14 0 0 -9c15,-11 40,-23 77,-33l21 -49 43 -12 6 -38 56 9 5 -21 182 -91 42 21c62,-13 97,-18 105,-15l114 45 18 123 21 84 -129 106 -67 -38 -49 5 -80 -18 0 -61 -42 12 -50 -12 -15 -35 -23 12 -6 15 -21 -20 -5 55 -35 27c-15,47 -34,82 -56,105l0 15 -35 34 -7 50 -34 21 0 21 -15 0c-4,19 -9,37 -15,56l-20 -9 -14 29 0 20 -7 0 7 21c-34,49 -54,101 -62,155l-15 6 -12 27 0 37 -15 -6 -8 40 -30 56c-12,21 -18,39 -18,54l12 37 26 16c9,6 19,9 31,9l44 3 34 36 18 0 12 -6 17 6 27 -6 15 19 29 -9 24 0 0 -22 22 -12 12 9 27 -9 15 34 16 -31 31 37 18 -22 31 6 0 -12 50 6c7,-4 16,-8 30,-12l21 9 40 0 35 67 -11 38 -30 15c-17,5 -33,11 -50,18l-14 23 -41 -6 -24 17 -27 -21 -10 34 -34 0 -21 -13 -31 0 -21 -8 -34 21 -24 -6 -23 21 -27 -18 -15 27 -29 0 -6 -16 -30 16 -55 -16 -74 23 -28 -28 -42 55 -29 6 -6 70 -6 -5 0 34 -33 65 12 18 -12 43 0 77 -17 -6 0 39 -14 64c-23,50 -35,86 -35,112l7 43c-21,36 -32,59 -34,68l15 29 -21 20 0 27 21 21 -9 29 9 21 -42 49 12 33 -18 38 -10 117 -13 21 6 21 -27 34 6 56 0 21 -21 22 -40 181c-22,44 -33,67 -34,70l7 23 0 18c-19,42 -28,73 -28,93l0 33 -16 15 6 40 -11 9 5 29 -5 6 0 -17 -16 50c-8,43 -17,76 -25,99 -8,24 -25,50 -53,76l-6 27 -12 0 -9 23 9 6 -21 15 6 12 -34 64 -6 24c-2,8 -19,30 -50,66l0 28 -9 -12c-24,30 -42,46 -55,49l0 54 -54 99 -23 -9c-10,26 -28,61 -55,104l-31 34c-6,7 -19,31 -37,71l-55 24 0 16 -13 18 -14 -11 -44 76 -36 -21 -40 42 0 -9 -16 22 -11 0 -10 16 -13 5 -9 21 -12 -5 -21 28 -29 0 -15 27 -33 0 -28 -3 -20 -16c-5,-6 -13,-23 -24,-52l32 -49 46 -21 21 -35 56 -5 15 -37 44 -7 31 -33c9,-10 38,-29 85,-56l10 -58zm-6614 -111l36 28 56 -5 61 70 0 27 38 34 21 71 -9 44 9 0 -21 235 -38 41 -61 30 -71 90 -61 15 -56 55 -76 -37 -21 -55 33 -40 -22 -49 37 -71c-6,-42 -14,-65 -21,-71l-77 10 -55 -21 -92 21 9 34 -65 54 -28 0 -291 182 -50 49 -37 7 -13 28 -76 21 6 15 -56 21 -126 96 -21 21 31 19c8,7 22,23 40,52l34 -21 21 27 56 -21 42 21 78 -6 242 6 22 28 65 0 49 36 89 -30 33 0 31 21 41 0 27 23 44 0 21 21 24 4c7,1 21,11 43,30l27 0c17,-10 37,-17 59,-23l40 38 21 39 120 78 117 104 -27 49 48 44 -33 103 -9 99 -31 52c-10,16 -22,46 -36,87l-65 34 -13 36 -258 176 -48 -9 -7 27 -280 93 -42 33 -84 0 -21 21 -44 0 -18 23 -43 -16 -120 42 -6 -5 -56 5 -98 23 -166 -17 -77 23 -97 -23 -20 -1 -19 -2 -17 -1c-4,-1 -14,-6 -29,-17 -15,-9 -29,-19 -41,-27l-56 -78 6 -103 27 -6 29 -28 42 -22c17,-21 40,-42 70,-61l161 0 0 49 -6 18 21 21 -50 47c-6,6 -15,23 -27,53l12 26 77 35 22 -35 56 -12 77 18 91 10 56 -28 49 0 68 -14 27 -16 55 0 38 -7 129 -51 42 -9 33 -20c9,-6 37,-13 84,-21l22 -21 21 6 126 -71 34 -68 64 -19 -3 -39 26 -34 -12 -12 33 -86 -6 -34 18 -50 -36 -70 15 -56 -38 -82 -36 -15c-14,-31 -30,-55 -49,-71l-77 15 -24 -55c-3,-6 -16,-19 -38,-38 -23,-4 -48,-13 -76,-27l-50 50 -21 -23 -78 -18 -42 -43 -22 22 -39 -15 -29 27 -64 -27 -27 42 -68 -33 -9 33 -56 0 -11 -21 -65 -12 -55 27 -66 -7c-8,-1 -26,-11 -55,-29l-34 15 -27 -15 -6 27 -86 9 -7 -15 -33 6 -56 -50 -15 -37c-4,-12 -15,-27 -34,-45 24,-19 44,-37 61,-55l15 0 29 -50 27 0 34 -39 77 -50 76 -70 44 -29 56 -21 49 -49 42 -21 47 -41 70 -42 65 -70 73 -41c12,-12 29,-21 50,-28l9 -21 90 -65 27 0 37 -46c31,-16 57,-33 77,-48l6 -23 33 -15 6 -12c46,-34 84,-65 114,-93l12 0 0 -12 23 0 5 -21 65 -21 117 -72zm1488 451c0,22 -17,59 -50,112l0 28 -33 77 0 49 -43 104 0 15c0,23 7,35 22,35l48 -15c31,18 57,26 79,26l67 0c62,-16 109,-24 141,-24 37,0 77,3 120,9l0 10 56 5 51 62 -49 62 -87 12 -85 46 -33 6c-11,2 -28,11 -50,25l-92 -10c-7,9 -34,15 -83,17l-155 6c-45,30 -74,54 -88,70l6 77 -21 34 -12 110 -38 49 -6 133 -37 21 -7 37 23 76 -28 278 61 239 70 -30c14,-27 39,-41 77,-41l28 0c50,-16 87,-43 112,-82l70 -21 -9 -8 21 -27c19,-14 31,-26 37,-37l43 -15 12 -27c15,0 22,-8 22,-23 18,-31 62,-57 133,-77 13,8 21,17 21,29 0,18 -10,52 -28,102 -17,50 -41,86 -70,107l-84 58 -25 35c-10,14 -21,24 -35,30l-54 24 -42 12 -90 81 -55 6 -68 55 -29 29c-5,5 -15,10 -32,17l-190 74 -44 6 -34 28 -71 -47 -21 -92 -22 -47c-6,-16 -26,-123 -60,-322 2,-7 11,-24 27,-52l0 -53 37 -15 45 -126 -15 -42c43,-8 65,-14 69,-18 3,-4 5,-9 5,-13 0,-4 -5,-17 -15,-37l50 -148 14 -132 68 -182c-4,-22 -18,-44 -43,-65 -26,-21 -50,-34 -74,-38l-59 36 -18 0c-29,0 -49,-4 -62,-11 -12,-7 -19,-10 -20,-10 -9,0 -21,5 -35,14 -9,21 -21,32 -36,32l-6 0c-5,2 -13,3 -25,3 -11,0 -31,-2 -59,-6 -20,-56 -30,-90 -30,-102 0,-12 8,-35 22,-67 15,-33 30,-50 46,-50l21 3 43 -12c28,-8 48,-12 59,-12l9 0c4,2 10,3 18,3 10,0 19,-2 26,-6 7,-4 17,-6 26,-6 13,0 22,2 28,6l55 -28 16 0c16,0 29,-2 41,-7 12,-4 27,-24 45,-61l33 6c3,-20 15,-50 37,-89 18,-1 28,-15 28,-43l0 -18 -10 12c16,-39 28,-69 38,-89l-9 -58 65 -123c18,-27 41,-44 70,-50 20,-30 54,-59 101,-89 47,-28 78,-43 93,-43 35,0 56,16 64,47l-43 85 0 76zm1298 379l77 0 49 23c12,52 32,79 59,79 10,0 15,-10 15,-30 31,-23 60,-35 85,-35 17,0 30,6 41,17 11,11 17,22 18,33l12 171 -9 35c-7,23 -12,47 -15,73 -3,26 -8,46 -15,62 -6,15 -11,24 -13,28l-122 129 15 89 -32 53 -15 47 -94 108 -47 118c-28,31 -68,55 -120,73l-21 85 -87 56 -76 94 -139 103 -40 10 -156 126 -44 -40c-34,-26 -57,-48 -71,-67 -13,-18 -20,-35 -20,-50 0,-8 3,-15 9,-21l15 -129 -65 -105c-6,-9 -9,-18 -9,-24 0,-13 6,-26 18,-41l0 -6 26 -24 -29 -75 9 -156 0 -40 23 -13c-11,-20 -17,-43 -17,-70 0,-15 7,-31 20,-47l27 0 -24 -21 18 -33 31 -81 45 -55 14 -42 45 -62c4,-14 8,-26 12,-38l0 4c0,-16 4,-29 11,-39 7,-10 19,-29 36,-56l73 -38 6 -21c50,-40 99,-64 149,-73l100 -19 68 -39 49 2 105 -28zm-93 268l-6 13c-18,0 -31,0 -39,0 -8,1 -19,7 -34,21l-44 -18 -165 91c-41,23 -76,61 -105,113 -29,53 -43,96 -43,130 0,21 4,40 13,56l6 0c0,23 6,65 18,126l-37 59 28 42 -15 52c0,7 4,19 12,37 8,17 11,31 11,39 -1,9 8,26 25,53l-3 32c0,55 13,82 40,82 22,0 52,-15 89,-46 9,-26 27,-40 52,-42l16 -47c17,-2 25,-10 25,-24l0 -10c5,-3 11,-6 17,-9 5,-4 9,-6 10,-7 12,-39 36,-83 71,-131l10 5 -4 -11 46 -53 59 -194 9 -18 19 -5 2 -35 0 -27c1,-6 8,-25 22,-56l-93 -74 72 -28 -10 -82 13 -30 -19 9 -68 -13zm1180 -265c24,11 37,27 40,49 -27,29 -40,72 -40,126l0 23c-10,10 -15,20 -15,30 0,11 2,19 6,24l9 0 -9 44 -27 6 -12 49 -9 0c3,17 10,28 21,33 25,-2 65,-33 120,-94l6 6 153 -115 29 -6 70 -39 56 -16c34,-30 90,-46 165,-48 34,20 56,30 67,30 14,0 20,4 20,12 0,7 -5,28 -14,61l-64 38 -36 45 -106 50 -39 -18 -28 0 0 6c-72,27 -138,48 -196,61 -29,55 -80,127 -155,216 -75,90 -114,157 -116,203l-9 218 -58 97 6 137c-4,16 -11,32 -20,50 -10,17 -17,33 -21,46 -4,13 -18,38 -42,75l-27 7c-7,2 -34,20 -81,57l-76 0 -35 13 -49 -49c0,-29 10,-65 31,-108 21,-43 33,-74 36,-94 14,-99 40,-158 78,-176l15 -43 -6 -27 12 -23 -40 -67 0 -21 -10 -133c15,-9 24,-15 29,-15 8,0 17,6 27,15l59 -76 -10 -56 16 -64 -37 -29 0 -153 -55 44 -34 0 -50 33 -48 -12 -49 6c-27,0 -41,-9 -41,-27 0,-30 15,-66 45,-107 30,-41 76,-78 137,-113l0 -6 40 -5c16,-30 34,-44 55,-44 13,-5 26,-15 41,-29 15,-15 49,-34 101,-59l39 21 31 -15 47 -13 57 -31zm1257 13l38 7 6 0 -6 14 12 0 21 21 71 7 70 0 41 22 15 0 22 76 -31 28 0 28 49 49 -6 139 -21 0 -7 27 -6 0 0 43 28 6 12 15 -18 29 0 21 -37 18 -27 22 -78 42c-21,22 -40,39 -54,50l-23 61 -132 53 -132 -3 6 33 -27 0 -6 9 -65 13 -6 -22 -22 9 0 13 -56 21 -21 62 29 77 0 37 15 33c-20,59 -35,90 -44,93l9 27 -15 7 35 14 0 47 30 21c50,-15 80,-26 92,-33l22 21 6 -6c41,-4 73,-9 98,-15l10 -18 36 0 28 -3 37 18 -9 -12 30 0 37 -32 44 -2 -10 0 42 -19 13 9 22 -21 30 0 29 -28c22,-1 57,-14 106,-39l0 -17 44 -12 46 -67 50 5c17,16 37,26 60,29l23 21 -35 65 6 40 -48 27 -6 15 -72 9 -39 41 -44 3 -12 34 -58 -6 -18 42 -47 -5 -18 21c-34,12 -51,20 -53,22l-21 -12 -34 33 -50 0 -29 15 -19 0 -22 19c-26,8 -53,18 -80,33l-21 -15 -43 0 -18 15 -17 -5 -21 5 -6 -5 -15 34 -40 0 -33 18c-11,6 -35,11 -72,15l-15 15 -27 0 -41 6 -30 38 -40 -16 -21 27 -17 -4c-4,-1 -24,-20 -60,-57l6 -36 -6 -19 6 -37 -23 -55 10 -44 -16 -67 16 -56 -21 -85 -6 -6 6 -44 49 -18 0 -30 -21 -7 6 -39 -13 -23 7 -36 21 -12 -6 -35 6 -58 12 -6 21 -70 50 -89 43 -16 6 -49 -6 -13 6 -27 27 -15 17 -50 -38 0 0 -18 15 -22 -6 -21 6 -21 6 0 0 -50 50 -6 21 -44 105 -116 21 0c12,-19 27,-36 47,-49l21 7c13,-6 30,-22 49,-50l15 0 28 -18 13 0 21 -31 110 -34zm-36 256l-52 18 -40 -18c-24,20 -44,34 -59,42 -3,26 -14,48 -31,66 -17,18 -30,27 -37,27l-26 0 17 33c-11,20 -25,51 -43,93l-24 -6 -9 39 9 56 30 16c9,5 34,11 75,18l48 -31 99 -10 53 -76 70 -59 9 -111 -24 -36 -3 -52 -34 0 -28 -9z"/>
 </g>
</svg>
